{"title":"IMPACT.WRESTLING.2013.04.25.HDTV.XviD-FICEK9","uid":8489157,"size":782996073,"categoryP":"video","categoryS":"tv_shows","magnet":"?xt=urn:btih:9ebd2097712476fa8c7c64ced8ba8bf514d7d40b&amp;dn=IMPACT.WRESTLING.2013.04.25.HDTV.XviD-FICEK9&amp;tr=udp%3A%2F%2Ftracker.openbittorrent.com%3A80&amp;tr=udp%3A%2F%2Fopen.demonii.com%3A1337&amp;tr=udp%3A%2F%2Ftracker.coppersurfer.tk%3A6969&amp;tr=udp%3A%2F%2Fexodus.desync.com%3A6969","seeders":0,"leechers":0,"uploader":"FICEK9","files":2,"time":1368922907,"description":"\n      Complete name : IMPACT.WRESTLING.2013.04.25.HDTV.XviD-FICEK9.avi\n      Format : AVI\n      Format/Info : Audio Video Interleave\n      File size : 747 MiB\n      Duration : 1h 24mn\n      Overall bit rate : 1 237 Kbps\n      Writing application : MEncoder SVN-r33883(20110719-gcc4.5.2)\n      Writing library : MPlayer\n   Video\n      Format : MPEG-4 Visual\n      Format profile : Streaming Video@L1\n      Format settings, BVOP : Yes\n      Format settings, QPel : No\n      Format settings, GMC : No warppoints\n      Format settings, Matrix : Default (H.263)\n      Codec ID : XVID\n      Codec ID/Hint : XviD\n      Duration : 1h 24mn\n      Bit rate : 1 099 Kbps\n      Width : 624 pixels\n      Height : 352 pixels\n      Display aspect ratio : 16/9\n      Frame rate : 29.970 fps\n      Resolution : 24 bits\n      Colorimetry : 4:2:0\n      Scan type : Progressive\n      Bits/(Pixel*Frame) : 0.167\n      Stream size : 663 MiB (89%)\n      Writing library : XviD 1.2.1 (UTC 2008-12-04)\n   Audio\n      Format : MPEG Audio\n      Format version : Version 1\n      Format profile : Layer 3\n      Codec ID : 55\n      Codec ID/Hint : MP3\n      Duration : 1h 24mn\n      Bit rate mode : Constant\n      Bit rate : 32.0 Kbps\n      Channel(s) : 2 channels\n      Sampling rate : 48.0 KHz\n      Resolution : 16 bits\n      Stream size : 75.2 MiB (10%)\n      Alignment : Aligned on interleaves\n      Interleave, duration : 24 ms (0.72 video frame)\n      Interleave, preload duration : 696 ms\n      Writing library : LAME3.98.4","torrent":{"xt":"urn:btih:9ebd2097712476fa8c7c64ced8ba8bf514d7d40b","amp;dn":"IMPACT.WRESTLING.2013.04.25.HDTV.XviD-FICEK9","amp;tr":["udp%3A%2F%2Ftracker.openbittorrent.com%3A80","udp%3A%2F%2Fopen.demonii.com%3A1337","udp%3A%2F%2Ftracker.coppersurfer.tk%3A6969","udp%3A%2F%2Fexodus.desync.com%3A6969"],"infoHash":"9ebd2097712476fa8c7c64ced8ba8bf514d7d40b","infoHashBuffer":{"type":"Buffer","data":[158,189,32,151,113,36,118,250,140,124,100,206,216,186,139,245,20,215,212,11]},"announce":[],"urlList":[]}}